<?xml version="1.0" standalone="no"?><!DOCTYPE svg PUBLIC "-//W3C//DTD SVG 1.1//EN" "http://www.w3.org/Graphics/SVG/1.1/DTD/svg11.dtd"><svg t="1586598535616" class="icon" viewBox="0 0 1024 1024" version="1.1" xmlns="http://www.w3.org/2000/svg" p-id="1928" xmlns:xlink="http://www.w3.org/1999/xlink" width="200" height="200"><defs><style type="text/css"></style></defs><path d="M287.876 71.774h112.07v96.05h-112.07z" fill="#8CC63F" p-id="1929"></path><path d="M287.876 119.792h112.07v48.024h-112.07z" fill="#D9E021" p-id="1930"></path><path d="M399.946 39.752h608.324V199.84H399.946z" fill="#8CC63F" p-id="1931"></path><path d="M754.494 126.672a175.32 175.32 0 0 0-68.77 0l-11.272 2.254a175.32 175.32 0 0 1-68.77 0l-11.272-2.254a175.32 175.32 0 0 0-68.77 0l-11.272 2.254a175.32 175.32 0 0 1-68.77 0l-45.656-9.132v80.042h608.32V119.794a151.884 151.884 0 0 1-96.05 0" fill="#D9E021" p-id="1932"></path><path d="M752.126 39.752h160.088V199.84h-160.088z" fill="#FFFFFF" p-id="1933"></path><path d="M415.95 648.07V431.958c0-13.262 10.752-24.014 24.014-24.014h16.008c13.262 0 24.014-10.752 24.014-24.014 0-13.262 10.752-24.014 24.014-24.014h48.026c13.262 0 24.014 10.752 24.014 24.014 0 13.262 10.752 24.014 24.014 24.014 22.104 0 40.022 17.918 40.022 40.022v200.106M79.778 644.858l-45.45-45.45c-9.376-9.376-9.376-24.582 0-33.958l11.32-11.32c9.376-9.376 9.376-24.582 0-33.958-9.376-9.376-9.376-24.582 0-33.958l33.958-33.958c9.376-9.376 24.582-9.376 33.958 0 9.376 9.376 24.582 9.376 33.958 0 15.628-15.628 40.968-15.628 56.598 0l27.73 27.73s-70.632 115.302 40.022 168.088l-192.094-3.216zM960.232 644.858l45.45-45.45c9.376-9.376 9.376-24.582 0-33.958l-11.32-11.32c-9.376-9.376-9.376-24.582 0-33.958 9.376-9.376 9.376-24.582 0-33.958l-33.958-33.958c-9.376-9.376-24.582-9.376-33.958 0-9.376 9.376-24.582 9.376-33.958 0-15.628-15.628-40.968-15.628-56.598 0l-27.73 27.73s70.632 115.302-40.022 168.088l192.094-3.216z" fill="#39B54A" p-id="1934"></path><path d="M146.566 632.066l-45.276-45.278 45.276-45.276 45.278 45.276zM541.258 632.048l-45.278-45.276 45.278-45.278 45.276 45.278zM893.47 632.062l-45.276-45.276 45.276-45.278 45.278 45.278z" fill="#F15A24" p-id="1935"></path><path d="M678.372 648.074c-32.546-19.608-54.314-55.29-54.314-96.054 0-61.888 50.172-112.06 112.06-112.06s112.06 50.172 112.06 112.06c0 40.764-21.768 76.446-54.314 96.054" fill="#FF1D25" p-id="1936"></path><path d="M736.114 552.016m-64.032 0a64.032 64.032 0 1 0 128.064 0 64.032 64.032 0 1 0-128.064 0Z" fill="#FF4A51" p-id="1937"></path><path d="M736.114 552.016m-32.018 0a32.018 32.018 0 1 0 64.036 0 32.018 32.018 0 1 0-64.036 0Z" fill="#FF777C" p-id="1938"></path><path d="M262.154 648.074c-32.546-19.608-54.314-55.29-54.314-96.054 0-61.888 50.172-112.06 112.06-112.06s112.06 50.172 112.06 112.06c0 40.764-21.768 76.446-54.314 96.054" fill="#FF1D25" p-id="1939"></path><path d="M262.154 648.074c-32.546-19.608-54.314-55.29-54.314-96.054 0-61.888 50.172-112.06 112.06-112.06s112.06 50.172 112.06 112.06c0 40.764-21.768 76.446-54.314 96.054" fill="#FF1D25" p-id="1940"></path><path d="M319.902 552.016m-64.032 0a64.032 64.032 0 1 0 128.064 0 64.032 64.032 0 1 0-128.064 0Z" fill="#FF4A51" p-id="1941"></path><path d="M672.084 984.248H351.916c-185.664 0-336.176-150.512-336.176-336.178h992.52c0 185.666-150.512 336.178-336.176 336.178z" fill="#D4145A" p-id="1942"></path><path d="M912.21 650.036c0 184.684-150.512 333.69-336.176 333.69h96.05c185.664 0 336.176-149.006 336.176-333.69h-96.05z" fill="#DD437B" p-id="1943"></path><path d="M111.79 650.036c0 190.98 150.512 333.69 336.176 333.69h-96.05c-185.664 0-336.176-142.71-336.176-333.69h96.05z" fill="#9F0F44" p-id="1944"></path><path d="M31.754 712.104h960.504v48.024H31.754z" fill="#FFFFFF" p-id="1945"></path><path d="M305.38 471.658h31.48v33.578h-31.48zM276.988 525.366l-20.58-24.524 24.112-20.234 20.58 24.524zM269.846 559.18l-31.53-5.564 5.468-31 31.53 5.56zM258.46 605.666l-15.74-27.26 27.724-16.008 15.74 27.26zM307.338 632.62l-29.582-10.768 10.95-30.084 29.58 10.766zM332.474 632.61l-10.948-30.084 29.58-10.766 10.95 30.084zM381.336 605.676l-27.724-16.006 15.74-27.26 27.724 16.006zM369.93 559.206l-5.468-31 31.53-5.562 5.468 31zM362.802 525.334l-24.114-20.234 20.58-24.524 24.114 20.234zM718.82 471.658h31.48v33.578h-31.48zM693.226 525.34l-20.58-24.524 24.114-20.236 20.58 24.524zM686.076 559.196l-31.532-5.56 5.468-31.004 31.532 5.562zM674.684 605.684l-15.74-27.262 27.726-16.008 15.74 27.26zM723.572 632.606l-29.582-10.768 10.95-30.084 29.58 10.766zM748.678 632.608l-10.95-30.086 29.58-10.766 10.952 30.086zM797.566 605.692l-27.726-16.008 15.74-27.26 27.726 16.006zM786.136 559.196l-5.468-31.002 31.53-5.56 5.468 31zM779.024 525.356l-24.114-20.236 20.58-24.524 24.114 20.236zM95.502 488.446h31.48v31.48h-31.48zM911.898 488.446h31.48v31.48h-31.48zM511.05 440.176h33.578v31.48h-33.578zM464.88 505.236h31.48v31.48h-31.48z" fill="" p-id="1946"></path><path d="M95.502 200.926h31.48v31.48h-31.48zM126.992 247.098h31.48v65.06h-31.48zM47.232 326.848h31.48v48.27h-31.48zM175.262 360.426h31.48v31.48h-31.48z" fill="#D9E021" p-id="1947"></path><path d="M987.012 632.332l21.794-21.792c15.498-15.498 15.498-40.718 0-56.22l-11.32-11.318c-1.564-1.564-2.422-3.64-2.422-5.848s0.86-4.288 2.422-5.852c15.5-15.498 15.5-40.718 0-56.22l-33.958-33.958c-7.51-7.51-17.49-11.644-28.11-11.644s-20.6 4.134-28.11 11.644a8.282 8.282 0 0 1-11.7 0c-21.74-21.74-57.116-21.74-78.858 0l-6.732 6.732c-20.882-14.858-46.378-23.634-73.9-23.634-30.404 0-58.348 10.688-80.31 28.486v-4.74c0-30.746-25.014-55.76-55.762-55.76a8.28 8.28 0 0 1-8.27-8.274c0-21.92-17.832-39.754-39.754-39.754h-48.024c-21.92 0-39.754 17.832-39.754 39.754a8.286 8.286 0 0 1-8.274 8.274h-16.008c-21.918 0-39.752 17.832-39.752 39.752v20.75c-21.962-17.794-49.906-28.486-80.31-28.486-33.648 0-64.278 13.092-87.124 34.422l-17.52-17.522c-10.534-10.534-24.534-16.332-39.43-16.332s-28.896 5.8-39.43 16.332a8.28 8.28 0 0 1-11.7 0c-15.498-15.496-40.718-15.498-56.22 0l-33.958 33.958c-15.5 15.498-15.5 40.718 0 56.22a8.216 8.216 0 0 1 2.422 5.852c0 2.21-0.86 4.286-2.422 5.848l-11.32 11.32c-15.498 15.498-15.498 40.718 0 56.22l21.794 21.79H0v15.74c0 194.046 157.87 351.916 351.916 351.916h320.168c194.046 0 351.916-157.87 351.916-351.916v-15.74h-36.988z m-113.662-168.95c7.51 7.51 17.49 11.644 28.11 11.644s20.6-4.134 28.11-11.644a8.28 8.28 0 0 1 11.698 0l33.958 33.958a8.282 8.282 0 0 1 0 11.7 39.488 39.488 0 0 0-11.644 28.11c0 10.618 4.134 20.6 11.644 28.11l11.32 11.318a8.282 8.282 0 0 1 0 11.7l-44.054 44.054h-27.048l45.548-45.548-67.538-67.538-29.618 29.618c-0.742-30.38-12.122-58.15-30.57-79.74l5.744-5.744c9.468-9.466 24.872-9.466 34.34 0.002z m-1.886 168.95h-35.798a126.118 126.118 0 0 0 14.144-21.654l21.654 21.654z m-1.028-45.548l23.018-23.018 23.018 23.018-23.018 23.018-23.018-23.018z m-134.318-131.084c25.7 0 49.066 10.138 66.354 26.6l3.364 3.364c16.462 17.288 26.6 40.654 26.6 66.354a96.76 96.76 0 0 1-6.39 34.634l-0.128 0.128 0.058 0.058c-7.07 18.364-19.726 34.242-36.74 45.486H683c-27.11-17.918-43.202-47.614-43.202-80.31 0-53.104 43.21-96.314 96.32-96.314z m-111.748 32.286h1.22c-0.41 0.704-0.822 1.404-1.22 2.118v-2.118z m-184.408-64.3h16.008c21.92 0 39.754-17.832 39.754-39.754a8.286 8.286 0 0 1 8.274-8.274h48.024a8.284 8.284 0 0 1 8.272 8.274c0 21.92 17.832 39.754 39.752 39.754 13.388 0 24.282 10.892 24.282 24.28v23.682h-33.534v31.48h27.268a127.086 127.086 0 0 0-9.74 48.894c0 29.932 10.15 57.984 28.25 80.31h-73.308l45.548-45.548-67.538-67.538-67.538 67.538 45.548 45.548h-99.83c18.102-22.326 28.25-50.378 28.25-80.31a127 127 0 0 0-16.008-61.842v-18.532h14.292v-31.48h-14.292v-8.21a8.272 8.272 0 0 1 8.266-8.272z m101.31 186.116l-23.018-23.018 23.018-23.018 23.018 23.018-23.018 23.018zM319.9 455.7c53.112 0 96.32 43.208 96.32 96.32 0 32.696-16.09 62.392-43.202 80.31H266.78c-27.11-17.918-43.202-47.614-43.202-80.31 0.004-53.11 43.21-96.32 96.322-96.32z m-118.706 143.98a126.052 126.052 0 0 0 19.154 32.65H168.546l32.648-32.65z m-54.638 10.122l-23.018-23.018 23.018-23.018 23.018 23.018-23.018 23.018z m-101.098-21.524a8.28 8.28 0 0 1 0-11.698l11.32-11.32c7.51-7.51 11.644-17.49 11.644-28.11s-4.134-20.6-11.644-28.11a8.282 8.282 0 0 1 0-11.7l33.958-33.958a8.284 8.284 0 0 1 11.7 0c7.51 7.51 17.49 11.644 28.11 11.644s20.6-4.134 28.11-11.644c4.588-4.586 10.684-7.112 17.17-7.112s12.584 2.526 17.17 7.112l19.506 19.506c-12.884 19.946-20.4 43.672-20.4 69.132 0 4.54 0.244 9.034 0.704 13.474l-46.248-46.248-67.54 67.538 45.548 45.55H89.51l-44.052-44.056z m946.68 75.534a319.76 319.76 0 0 1-3.236 32.396H35.098a319.7 319.7 0 0 1-3.236-32.396h960.276zM41.508 727.688h940.984a317.174 317.174 0 0 1-4.808 16.79H46.316a317.174 317.174 0 0 1-4.808-16.79z m630.576 240.82H351.916c-131.258 0-244.334-79.322-293.808-192.55h907.784c-49.472 113.226-162.55 192.55-293.808 192.55z" fill="" p-id="1948"></path><path d="M319.902 552.016m-32.018 0a32.018 32.018 0 1 0 64.036 0 32.018 32.018 0 1 0-64.036 0Z" fill="#FF777C" p-id="1949"></path><path d="M384.202 24.012v191.564H1024V24.012H384.202zM992.52 108.33c-25.53 6.792-50.204 3.098-63.84-0.136V55.492h63.84v52.838zM817.45 135.86v48.236H769.18V55.492h128.02v128.604h-48.27V135.86h-31.48zM737.7 55.492v52.86a190.072 190.072 0 0 0-55.062 2.886l-11.272 2.254a158.74 158.74 0 0 1-62.598 0l-11.272-2.254a190.128 190.128 0 0 0-74.942 0l-11.272 2.254a158.74 158.74 0 0 1-62.598 0l-33.004-6.6v-51.4h322.02zM415.682 138.994l26.83 5.366a190.128 190.128 0 0 0 74.942 0l11.272-2.254a158.776 158.776 0 0 1 62.598 0l11.272 2.254a190.888 190.888 0 0 0 37.472 3.73 190.7 190.7 0 0 0 37.47-3.73l11.272-2.254a158.664 158.664 0 0 1 48.888-2.098v44.088H415.682V138.994zM928.68 184.096V140.426c9.134 1.772 20.568 3.25 33.322 3.25 9.57 0 19.888-0.858 30.516-3.022v43.44H928.68zM303.272 39.32h-31.48v65.06H153.394L116.088 140.886l22.02 22.5L166.234 135.86h105.558v65.058h31.48v-16.788h62.96V152.648h-62.96V87.59h62.96v-31.48h-62.96z" fill="" p-id="1950"></path></svg>