<?xml version="1.0" standalone="no"?><!DOCTYPE svg PUBLIC "-//W3C//DTD SVG 1.1//EN" "http://www.w3.org/Graphics/SVG/1.1/DTD/svg11.dtd"><svg t="1586598635622" class="icon" viewBox="0 0 1024 1024" version="1.1" xmlns="http://www.w3.org/2000/svg" p-id="2200" xmlns:xlink="http://www.w3.org/1999/xlink" width="200" height="200"><defs><style type="text/css"></style></defs><path d="M14.598 14.598V161.78c10.428-2.1 21.894-3.214 32.856-3.214 88.378 0 160.45 71.644 160.45 160.026 0 88.378-72.282 160.026-160.662 160.026-10.962 0-22.216-1.114-32.642-3.214v196.856c6.256-1.05 11.37-1.612 16.854-1.612 44.19 0 80.438 35.824 80.438 80.012s-36.46 80.012-80.65 80.012c-5.48 0-10.384-0.564-16.64-1.612v178.256h242.676c-0.582-4.172-0.938-10.894-0.938-16.312 0-79.542 64.48-144.178 144.024-144.178s144.024 64.712 144.024 144.252c0 5.416-0.356 12.062-0.938 16.234h192.968c0-52.138 42.988-96.014 96.014-96.014s96.014 43.876 96.014 96.014h80.958V14.598H14.598zM288.34 718.654c-35.352 0-64.01-28.66-64.01-64.01 0-35.352 28.658-64.01 64.01-64.01s64.01 28.658 64.01 64.01c0.002 35.352-28.658 64.01-64.01 64.01z m32.006-576.09c-17.674 0-32.004-14.33-32.004-32.004 0-17.678 14.33-32.004 32.004-32.004s32.004 14.328 32.004 32.004c0.002 17.674-14.328 32.004-32.004 32.004zM784.42 110.558c53.026 0 96.014 42.988 96.014 96.014s-42.988 96.014-96.014 96.014c-53.026 0-96.014-42.988-96.014-96.014s42.984-96.014 96.014-96.014zM480.37 494.62c-35.352 0-64.01-28.66-64.01-64.01 0-35.352 28.658-64.01 64.01-64.01s64.01 28.658 64.01 64.01c0 35.35-28.658 64.01-64.01 64.01z m64.01-192.032c-17.674 0-32.004-14.33-32.004-32.004 0-17.678 14.33-32.004 32.004-32.004s32.004 14.328 32.004 32.004c0.002 17.676-14.326 32.004-32.004 32.004z m160.026 432.068c-44.19 0-80.012-35.824-80.012-80.012s35.824-80.012 80.012-80.012 80.012 35.824 80.012 80.012c0 44.19-35.822 80.012-80.012 80.012z m96.016-240.036c-17.674 0-32.004-14.33-32.004-32.004 0-17.678 14.33-32.004 32.004-32.004s32.004 14.328 32.004 32.004c0 17.674-14.33 32.004-32.004 32.004z m80.012 256.038c-17.674 0-32.004-14.33-32.004-32.004 0-17.678 14.33-32.004 32.004-32.004s32.004 14.328 32.004 32.004-14.33 32.004-32.004 32.004z" fill="#FBB03B" p-id="2201"></path><path d="M257.274 1007.968s-15.272-153.434 143.084-160.026v-16.002h-48.008c-97.218 0-176.028 78.81-176.028 176.028h80.952zM704.406 1009.14l0.622 2.204c-0.342-62.982 50.618-114.22 113.602-114.22h13.796l-23.436 14.06a159.284 159.284 0 0 0-72.578 97.956h-32.006zM224.332 655.132c0-35.77 31.63-69.096 64.01-79.524h-48.008c-44.19 0-80.012 35.336-80.012 79.524 0 44.19 35.824 79.768 80.012 79.768 8.422 0 32.758-0.298 48.008 0.122-32.382-10.242-64.01-44.12-64.01-79.89zM688.404 750.658c5.464 0 10.788-0.564 16.002-1.44-45.394-7.634-80.012-47.012-80.012-94.576 0-47.562 34.62-86.942 80.012-94.576-5.214-0.878-10.538-1.44-16.002-1.44-53.026 0-96.014 42.988-96.014 96.014s42.986 96.018 96.014 96.018zM688.148 206.574c0-53.026 43.876-96.014 96.014-96.014v-16.712h-31.748c-61.866 0-112.018 50.754-112.018 112.62s50.154 112.62 112.018 112.62h31.748v-16.498c-52.138-0.002-96.014-42.988-96.014-96.016zM448.366 510.958c-44.19 0-80.012-36.102-80.012-80.294s35.824-80.294 80.012-80.294h31.308v16.228s-64.044 1.718-64.01 64.01c0.034 62.292 64.01 64.012 64.01 64.012v16.338h-31.308zM784.42 462.614c0-17.726 9.714-33.032 24.004-41.35-7.086-4.124-15.214-6.66-24.004-6.66-26.514 0-48.008 21.494-48.008 48.008s21.494 48.008 48.008 48.008c8.788 0 16.918-2.534 24.004-6.66-14.29-8.312-24.004-23.62-24.004-41.346zM864.432 718.654c0-17.724 9.714-33.032 24.004-41.35-7.086-4.124-15.214-6.66-24.004-6.66-26.514 0-48.008 21.494-48.008 48.008s21.494 48.008 48.008 48.008c8.79 0 16.918-2.534 24.004-6.66-14.29-8.314-24.004-23.62-24.004-41.346zM528.378 270.584c0-17.726 9.714-33.032 24.004-41.35-7.086-4.124-15.214-6.66-24.004-6.66-26.514 0-48.008 21.494-48.008 48.008s21.494 48.008 48.008 48.008c8.788 0 16.918-2.534 24.004-6.66-14.29-8.312-24.004-23.62-24.004-41.346zM288.34 110.558c0-17.726 25.716-33.032 40.006-41.35-7.086-4.124-15.214-6.66-24.004-6.66-26.514 0-48.008 21.494-48.008 48.008s21.494 48.008 48.008 48.008c8.788 0 16.918-2.534 24.004-6.66-14.288-8.312-40.006-23.62-40.006-41.346z" fill="#F7931E" p-id="2202"></path><path d="M1024 1024h-111.198v-15.642c0-45.068-35.306-80.374-80.374-80.374s-80.372 35.304-80.372 80.374V1024H526.67l1.17-16.73c0.15-2.16 0.286-3.958 0.404-5.53 0.33-4.368 0.494-6.558 0.494-10.004 0-71.132-57.59-129.004-128.382-129.004s-128.382 57.778-128.382 128.794c0 3.538 0.174 5.858 0.518 10.482 0.114 1.518 0.242 3.236 0.384 5.26l1.17 16.73H0V810.574l18.23 3.06c5.402 0.908 9.176 1.398 13.66 1.398 35.63 0 64.616-28.876 64.616-64.37 0-35.496-28.952-64.372-64.534-64.372-4.048 0-7.516 0.352-13.742 1.398L0 690.746V456.916l18.23 3.06c11.854 1.99 19.696 2.998 29.662 2.998 79.748 0 144.632-64.77 144.632-144.384S127.68 174.208 47.976 174.208c-9.98 0-18.154 1.054-29.746 3L0 180.266V0h1024v1024z m-80.956-31.284h49.674V31.284H31.284v112.494a161.15 161.15 0 0 1 16.692-0.852c96.952 0 175.832 78.804 175.832 175.668s-78.914 175.668-175.916 175.668c-5.912 0-11.202-0.288-16.61-0.842v161.59l0.688-0.002c52.836 0 95.818 42.91 95.818 95.656 0 52.744-43.02 95.654-95.9 95.654l-0.606-0.002v146.408H240.7a115.094 115.094 0 0 1-0.006-1.19c0-88.268 71.626-160.078 159.664-160.078s159.664 71.906 159.664 160.286l-0.004 0.982h161.792c7.392-54.948 53.324-96.016 110.614-96.016 57.294-0.008 103.228 41.062 110.62 96.008z m-62.61-226.414c-26.272 0-47.646-21.374-47.646-47.646 0-26.272 21.374-47.646 47.646-47.646 26.274 0 47.646 21.374 47.646 47.646 0 26.272-21.372 47.646-47.646 47.646z m0-64.012c-9.022 0-16.364 7.342-16.364 16.364 0 9.022 7.342 16.364 16.364 16.364s16.364-7.342 16.364-16.364c-0.002-9.022-7.342-16.364-16.364-16.364z m-176.028 48.008c-52.744 0-95.654-42.91-95.654-95.654 0-52.746 42.91-95.656 95.654-95.656 52.746 0 95.656 42.91 95.656 95.656 0 52.744-42.91 95.654-95.656 95.654z m0-160.026c-35.496 0-64.37 28.876-64.37 64.372 0 35.494 28.876 64.37 64.37 64.37s64.372-28.876 64.372-64.37c0-35.496-28.878-64.372-64.372-64.372zM288.34 734.296c-43.922 0-79.65-35.732-79.65-79.65s35.732-79.652 79.65-79.652 79.65 35.732 79.65 79.652-35.73 79.65-79.65 79.65z m0-128.02c-26.67 0-48.368 21.698-48.368 48.368s21.698 48.368 48.368 48.368 48.368-21.698 48.368-48.368-21.698-48.368-48.368-48.368z m512.082-96.016c-26.274 0-47.648-21.374-47.648-47.646 0-26.274 21.374-47.646 47.648-47.646s47.646 21.374 47.646 47.646c0 26.272-21.372 47.646-47.646 47.646z m0-64.008c-9.024 0-16.366 7.342-16.366 16.364s7.342 16.364 16.366 16.364c9.022 0 16.364-7.342 16.364-16.364-0.002-9.026-7.342-16.364-16.364-16.364zM480.37 510.26c-43.922 0-79.65-35.732-79.65-79.65s35.732-79.65 79.65-79.65 79.65 35.732 79.65 79.65-35.728 79.65-79.65 79.65z m0-128.02c-26.67 0-48.368 21.698-48.368 48.368s21.698 48.368 48.368 48.368 48.368-21.698 48.368-48.368-21.698-48.368-48.368-48.368z m304.05-64.01c-61.568 0-111.658-50.088-111.658-111.656s50.09-111.658 111.658-111.658 111.656 50.088 111.656 111.658c0 61.568-50.088 111.656-111.656 111.656z m0-192.03c-44.32 0-80.374 36.056-80.374 80.374s36.054 80.372 80.374 80.372c44.318 0 80.372-36.054 80.372-80.372S828.738 126.2 784.42 126.2z m-240.04 192.03c-26.272 0-47.646-21.374-47.646-47.646s21.374-47.646 47.646-47.646c26.274 0 47.648 21.374 47.648 47.646s-21.374 47.646-47.648 47.646z m0-64.008c-9.022 0-16.364 7.342-16.364 16.364 0 9.022 7.342 16.364 16.364 16.364 9.024 0 16.366-7.342 16.366-16.364 0-9.024-7.34-16.364-16.366-16.364zM320.348 158.204c-26.274 0-47.648-21.374-47.648-47.646 0-26.274 21.374-47.646 47.648-47.646s47.646 21.374 47.646 47.646c-0.002 26.272-21.376 47.646-47.646 47.646z m0-64.008c-9.024 0-16.366 7.342-16.366 16.364s7.342 16.364 16.366 16.364c9.022 0 16.364-7.342 16.364-16.364-0.004-9.024-7.342-16.364-16.364-16.364z" fill="" p-id="2203"></path></svg>