<?xml version="1.0" standalone="no"?><!DOCTYPE svg PUBLIC "-//W3C//DTD SVG 1.1//EN" "http://www.w3.org/Graphics/SVG/1.1/DTD/svg11.dtd"><svg t="1586598744101" class="icon" viewBox="0 0 1024 1024" version="1.1" xmlns="http://www.w3.org/2000/svg" p-id="2605" xmlns:xlink="http://www.w3.org/1999/xlink" width="200" height="200"><defs><style type="text/css"></style></defs><path d="M723.837215 271.850276v489.532497c0 129.310131-99.376101 240.580244-228.544232 246.662251-5.542006 0.262-11.046011 0.334-16.504017 0.224-173.488176-3.470004-257.562262-215.942219-139.864142-343.448349l42.414043-45.948046a204.798208 204.798208 0 0 0 54.314055-138.916142V271.848276" fill="#662D91" p-id="2606"></path><path d="M426.300913 664.822675l38.462039-45.948046c34.924035-37.832038 50.364051-87.430089 50.364051-138.916142V273.440278h-79.470081v206.516209a204.800208 204.800208 0 0 1-54.316055 138.916142l-42.416043 45.948046c-117.69812 127.506129-33.626034 339.976345 139.864142 343.448349 5.458006 0.108 10.962011 0.036 16.504017-0.224 11.258011-0.530001 22.186023-2.134002 32.944033-4.202004-147.116149-31.018032-210.678214-221.218225-101.936103-339.020345z" fill="#4D226D" p-id="2607"></path><path d="M739.847231 287.858292c0-88.42209-71.680073-160.102163-160.102162-160.102162s-160.102163 71.680073-160.102163 160.102162l53.370054-26.684027 53.366055 26.684027 53.368054-26.684027 53.366054 26.684027 53.366054-26.684027 53.368054 26.684027z" fill="#006837" p-id="2608"></path><path d="M689.65718 262.762267l50.190051 25.096025c0-88.42409-71.680073-160.102163-160.102162-160.102162-8.184008 0-16.162016 0.810001-24.014025 1.994002 68.78207 10.374011 123.096125 64.380065 133.926136 133.012135z" fill="#39B54A" p-id="2609"></path><path d="M755.629247 287.858292c0-91.710093-70.504072-167.20217-160.200162-175.066177V79.726081c0-26.664027 21.692022-48.356049 48.356049-48.356049s48.356049 21.694022 48.356049 48.356049h31.370032C723.511215 35.766036 687.747178 0 643.787134 0S564.061053 35.766036 564.061053 79.726081v33.100034c-89.492091 8.066008-159.772162 83.466085-159.772162 175.034177v25.378026l15.682016-7.860008v174.578177c0 47.684048-17.814018 93.240095-50.154051 128.278131l-42.414043 45.948046c-60.072061 65.076066-75.610077 156.618159-40.562042 238.902243 33.666034 79.02808 107.094109 129.172131 191.634195 130.864133a263.466268 263.466268 0 0 0 17.558018-0.24c66.206067-3.118003 127.83413-32.306033 173.536176-82.192084 45.110046-49.23805 69.952071-113.212115 69.952071-180.136183V305.18831l16.108016 8.048008v-25.378026z m-175.884178-144.416146c70.542072 0 129.438131 50.846052 141.962144 117.810119l-35.226036-17.614018-53.368054 26.684028-53.364054-26.684028-53.368054 26.684028-53.368055-26.684028-35.228035 17.614018c12.522013-66.964068 71.416073-117.81012 141.960144-117.810119z m128.40613 617.940627c0 59.05806-21.914022 115.506117-61.714062 158.944162-40.068041 43.736044-94.008095 69.32207-151.878155 72.048073-5.150005 0.242-10.354011 0.316-15.458015 0.212-37.100038-0.742001-72.038073-12.154012-101.038103-33.004033-27.158028-19.52402-48.724049-46.770048-62.362063-78.79008-30.148031-70.772072-16.834017-149.452152 34.748035-205.332209l42.414043-45.948047c37.708038-40.850041 58.476059-93.964095 58.476059-149.556152v-190.298193l21.840023-10.946011 53.206054 26.684027 53.372054-26.684027 53.376054 26.684027 53.392054-26.684027 21.622022 10.804011v471.868479h0.004z" fill="" p-id="2610"></path><path d="M458.666946 851.670865m-80.056081 0a80.056081 80.056081 0 1 0 160.112162 0 80.056081 80.056081 0 1 0-160.112162 0Z" fill="#8557A7" p-id="2611"></path><path d="M374.824861 772.072784l-30.376031-7.820008c7.680008-29.83003 25.214026-56.924058 49.36805-76.292077l19.62202 24.474025c-18.898019 15.154015-32.614033 36.334037-38.614039 59.63806zM483.756971 943.950959c-79.470081 0-143.840146-64.028065-143.840146-143.498146h31.370032c0 62.740064 49.730051 112.128114 112.470114 112.128114v31.370032z" fill="#FFFFFF" p-id="2612"></path></svg>