<?xml version="1.0" standalone="no"?><!DOCTYPE svg PUBLIC "-//W3C//DTD SVG 1.1//EN" "http://www.w3.org/Graphics/SVG/1.1/DTD/svg11.dtd"><svg t="1586598713481" class="icon" viewBox="0 0 1024 1024" version="1.1" xmlns="http://www.w3.org/2000/svg" p-id="2462" xmlns:xlink="http://www.w3.org/1999/xlink" width="200" height="200"><defs><style type="text/css"></style></defs><path d="M873.034 848.118H150.966c-74.634 0-135.14-60.502-135.14-135.14V311.022c0-74.634 60.502-135.14 135.14-135.14h722.068c74.634 0 135.14 60.502 135.14 135.14V712.98c-0.002 74.632-60.506 135.138-135.14 135.138z" fill="#6B7E87" p-id="2463"></path><path d="M854.3 800.1H169.7c-58.462 0-105.856-47.392-105.856-105.856V329.754c0-58.462 47.392-105.856 105.856-105.856h684.6c58.462 0 105.856 47.392 105.856 105.856v364.488c-0.002 58.464-47.394 105.858-105.856 105.858z" fill="#C7B299" p-id="2464"></path><path d="M159.878 415.966H95.854c0 61.876 50.16 112.04 112.04 112.04h64.022c0.002-61.88-50.162-112.04-112.038-112.04z" fill="#FBB03B" p-id="2465"></path><path d="M159.878 640.044H95.854c0-61.876 50.16-112.04 112.04-112.04h64.022c0.002 61.878-50.162 112.04-112.038 112.04z" fill="#FBB03B" p-id="2466"></path><path d="M512 640.044l-48.018 80.028h144.052c35.358 0 64.022-28.664 64.022-64.022M512 415.966l-48.018-80.028h144.052c35.358 0 64.022 28.664 64.022 64.022" fill="#F15A24" p-id="2467"></path><path d="M944.148 528.006s-150.484 128.046-336.118 128.046-336.116-128.046-336.116-128.046S422.4 399.96 608.032 399.96s336.116 128.046 336.116 128.046z" fill="#FBB03B" p-id="2468"></path><path d="M720.072 415.966l2.746 2.746a154.562 154.562 0 0 1 45.27 109.292c0 40.992-48.018 112.04-48.018 112.04s-194.534 81.966-448.156-112.04c0.004 0.002 166.312-172.56 448.158-112.038z" fill="#F15A24" p-id="2469"></path><path d="M495.994 415.966l30.476-7.62a280.9 280.9 0 0 1 68.124-8.386h29.444l-192.066 192.066h-48.018l-32.012-16.006 144.052-160.054z" fill="#FBB03B" p-id="2470"></path><path d="M877.948 863.944H146.052C65.518 863.944 0 798.424 0 717.892V306.108c0-80.534 65.518-146.052 146.052-146.052h731.896c80.532 0 146.052 65.518 146.052 146.052v411.784c0 80.532-65.518 146.052-146.052 146.052zM146.052 191.71c-63.082 0-114.398 51.318-114.398 114.398v411.784c0 63.082 51.318 114.398 114.398 114.398h731.896c63.082 0 114.398-51.32 114.398-114.398V306.108c0-63.082-51.318-114.398-114.398-114.398H146.052z" fill="" p-id="2471"></path><path d="M704.066 431.814L495.994 639.684l48.018 15.808h48.016l160.054-175.862-16.004-47.816z" fill="#FBB03B" p-id="2472"></path><path d="M801.086 497.22h31.652v31.652h-31.652z" fill="" p-id="2473"></path><path d="M295.924 776.668c-52.854 0-95.854-43.1-95.854-95.854h31.652c0 33.762 28.8 64.202 64.202 64.202s64.202-30.44 64.202-64.202h31.652c0.002 52.754-43 95.854-95.854 95.854z" fill="#FFFFFF" p-id="2474"></path><path d="M295.924 728.652c-26.378 0-47.838-22.516-47.838-47.838h31.652c0 8.44 7.26 16.186 16.186 16.186s16.186-7.744 16.186-16.186h31.652c0 25.322-21.46 47.838-47.838 47.838zM863.596 416.006l-22.382-22.38c25.034-25.034 25.034-65.764 0-90.794-25.024-25.028-65.76-25.03-90.792 0l-22.382-22.38c18.106-18.106 42.176-28.076 67.78-28.076 25.602 0 49.674 9.97 67.778 28.076 18.104 18.106 28.076 42.176 28.076 67.778 0 25.602-9.976 49.67-28.078 67.776z" fill="#FFFFFF" p-id="2475"></path><path d="M829.638 382.054l-22.378-22.382a16.086 16.086 0 0 0 4.74-11.444 16.08 16.08 0 0 0-4.74-11.444c-6.314-6.312-16.578-6.312-22.89 0l-22.382-22.38c18.654-18.652 49-18.652 67.654 0 9.034 9.036 14.012 21.05 14.012 33.826a47.536 47.536 0 0 1-14.016 33.824zM144.4 383.994c-37.374-37.374-37.374-98.184 0-135.558 37.382-37.374 98.186-37.372 135.56 0l-22.382 22.38c-25.028-25.032-65.764-25.03-90.792 0-25.032 25.034-25.032 65.764 0 90.794L144.4 383.994z" fill="#FFFFFF" p-id="2476"></path><path d="M178.354 350.042a47.53 47.53 0 0 1-14.014-33.828 47.516 47.516 0 0 1 14.014-33.826c18.646-18.65 48.998-18.652 67.652 0l-22.382 22.38c-6.31-6.31-16.576-6.31-22.886 0a16.08 16.08 0 0 0-4.742 11.444 16.08 16.08 0 0 0 4.74 11.444l-22.382 22.386zM827.826 787.586c-24.546 0-49.092-9.344-67.778-28.03l22.382-22.38c25.03 25.034 65.766 25.028 90.792 0 25.03-25.034 25.03-65.764 0-90.794l22.382-22.38c37.372 37.374 37.372 98.184 0 135.558-18.686 18.682-43.23 28.026-67.778 28.026z" fill="#FFFFFF" p-id="2477"></path><path d="M827.826 739.592c-12.252 0-24.5-4.662-33.826-13.988l22.382-22.38c6.31 6.31 16.576 6.31 22.886 0a16.08 16.08 0 0 0 4.742-11.444 16.08 16.08 0 0 0-4.74-11.444l22.378-22.382a47.53 47.53 0 0 1 14.014 33.828 47.516 47.516 0 0 1-14.014 33.826c-9.322 9.322-21.576 13.984-33.822 13.984z" fill="#FFFFFF" p-id="2478"></path><path d="M640.044 303.926h-48.018c-17.68 0-32.012-14.332-32.012-32.012s14.332-32.012 32.012-32.012h48.018c17.68 0 32.012 14.332 32.012 32.012-0.002 17.682-14.334 32.012-32.012 32.012zM383.954 351.944h-48.018c-17.68 0-32.012-14.332-32.012-32.012s14.332-32.012 32.012-32.012h48.018c17.68 0 32.012 14.332 32.012 32.012 0 17.678-14.332 32.012-32.012 32.012z" fill="#A67C52" p-id="2479"></path><path d="M319.932 415.966h-48.014c-17.68 0-32.012-14.332-32.012-32.012s14.332-32.012 32.012-32.012h48.018c17.68 0 32.012 14.332 32.012 32.012-0.004 17.68-14.338 32.012-32.016 32.012z" fill="#8C6239" p-id="2480"></path><path d="M383.954 272.094h-48.018c-26.378 0-47.838 21.46-47.838 47.838 0 5.678 1 11.126 2.824 16.186h-19.008c-26.378 0-47.838 21.46-47.838 47.838s21.46 47.838 47.838 47.838h48.018c26.378 0 47.838-21.46 47.838-47.838 0-5.678-1-11.126-2.824-16.186h19.008c26.378 0 47.838-21.46 47.838-47.838s-21.46-47.838-47.838-47.838z m-64.022 128.046h-48.018c-8.924 0-16.186-7.262-16.186-16.186s7.26-16.186 16.186-16.186h48.018c8.924 0 16.186 7.262 16.186 16.186-0.002 8.924-7.26 16.186-16.186 16.186z m64.022-64.024h-48.018c-8.924 0-16.186-7.262-16.186-16.186s7.26-16.186 16.186-16.186h48.018c8.924 0 16.186 7.262 16.186 16.186 0 8.926-7.26 16.186-16.186 16.186z" fill="" p-id="2481"></path><path d="M288.314 609.06h31.652v31.652h-31.652zM111.066 689.246h33.762v31.652H111.066zM144.822 735.67h31.652v31.652H144.822zM720.898 689.246h31.652v31.652h-31.652zM655.484 735.67h31.652v31.652h-31.652zM319.966 623.83h31.652v31.652h-31.652zM720.898 336.848h31.652v31.652h-31.652zM463.458 256.66h31.652v31.652h-31.652zM417.034 767.322h31.652v33.762h-31.652zM927.696 400.152h31.652v31.652h-31.652z" fill="#C1272D" p-id="2482"></path><path d="M869.882 208.072H154.116c-58.504 0-106.1 47.598-106.1 106.1v395.654c0 58.504 47.598 106.1 106.1 106.1H869.88c58.504 0 106.1-47.598 106.1-106.1V314.174c0.002-58.506-47.594-106.102-106.098-106.102z m-277.854 47.658h48.018c8.924 0 16.186 7.262 16.186 16.186s-7.258 16.186-16.186 16.186h-48.018c-8.924 0-16.186-7.262-16.186-16.186 0.002-8.924 7.26-16.186 16.186-16.186z m352.302 252.168c-15.3-11.778-47.27-34.772-91.254-57.92-62.366-32.822-118.718-49.988-165.642-58.456-4.228-40.074-38.22-71.408-79.4-71.408h-172.002l48.796 81.328c-48.042 13.136-89.91 31.736-121.836 48.536-34.26 18.032-61.224 35.964-78.71 48.582-13.338-56.352-64.036-98.42-124.406-98.42H80.028v15.826c0 48.206 26.824 90.254 66.322 112.04-39.498 21.784-66.322 63.832-66.322 112.04v15.826h79.85c60.37 0 111.066-42.068 124.406-98.42 17.484 12.618 44.448 30.554 78.71 48.582 44.008 23.16 85.014 38.51 121.84 48.532l-48.8 81.334h172.002c41.164 0 75.142-31.31 79.394-71.362 66.418-12.026 124.352-36.77 165.648-58.502 43.984-23.148 75.954-46.142 91.254-57.92v161.714c0 41.052-33.398 74.446-74.446 74.446H154.116c-41.05 0-74.446-33.398-74.446-74.446V314.174c0-41.052 33.398-74.446 74.446-74.446h402.556a47.654 47.654 0 0 0-12.484 32.19c0 26.378 21.46 47.838 47.838 47.838h48.016c26.378 0 47.838-21.46 47.838-47.838a47.654 47.654 0 0 0-12.484-32.19h194.484c41.05 0 74.446 33.398 74.446 74.446l0.004 193.724z m-182.29-63.464c73.344 26.432 130.21 64.39 156.268 83.572-26.06 19.182-82.926 57.14-156.272 83.572 14.248-25.23 21.874-53.808 21.874-83.572s-7.622-58.342-21.87-83.572z m-270.106-92.67h116.1c21.982 0 40.562 14.8 46.33 34.952-17.258-1.88-32.784-2.584-46.33-2.584-31.59 0-62.126 3.646-90.932 9.574l-25.168-41.942z m-194.18 176.242c24.34-17.918 75.572-52.202 141.994-78.178l-103.914 103.916c-16.048-10.014-28.962-19.03-38.08-25.738z m207.756-99.172c25.356-6.258 52.024-10.71 79.6-12.326l-176.486 176.486a641.654 641.654 0 0 1-44.632-22.642l141.518-141.518z m124.418-12.378c20.418 1.144 40.354 3.808 59.628 7.648l-199.146 199.148c-17.56-4.93-34.39-10.682-50.356-16.92l189.874-189.876z m89.766 22.272c10.786 12.784 19.08 27.206 24.584 42.688l-158.138 158.136c-20.418-1.144-40.352-3.808-59.628-7.648l193.182-193.176zM517.122 662.272c35.764 7.324 66.54 9.606 90.912 9.606 15.73 0 31.194-0.908 46.32-2.544-5.782 20.136-24.352 34.914-46.32 34.914h-116.1l25.188-41.976z m113.834-22.768l120.95-120.95a142.6 142.6 0 0 1 0.354 9.454c0 37.058-14.432 71.898-40.64 98.104l-1.158 1.158c-25.316 6.244-51.974 10.618-79.506 12.234zM207.894 512.18c-47.664 0-87.344-34.836-94.914-80.388h46.896c47.664 0 87.344 34.836 94.914 80.388h-46.896z m46.894 31.652c-7.57 45.55-47.248 80.388-94.914 80.388H112.98c7.57-45.55 47.248-80.388 94.914-80.388h46.894z" fill="" p-id="2483"></path></svg>