<?xml version="1.0" standalone="no"?><!DOCTYPE svg PUBLIC "-//W3C//DTD SVG 1.1//EN" "http://www.w3.org/Graphics/SVG/1.1/DTD/svg11.dtd"><svg t="1586598426413" class="icon" viewBox="0 0 1024 1024" version="1.1" xmlns="http://www.w3.org/2000/svg" p-id="1797" xmlns:xlink="http://www.w3.org/1999/xlink" width="200" height="200"><defs><style type="text/css"></style></defs><path d="M462.925 124.758v-15.78l48.832-78.898 48.83 78.898v15.78l-48.83 63.118z" fill="#A3D165" p-id="1798"></path><path d="M521.181 266.774H512.001v-24.96c0-82.078 66.536-148.616 148.616-148.616h9.18v24.96c0 82.078-66.54 148.616-148.616 148.616z" fill="#8CC63F" p-id="1799"></path><path d="M634.949 94.496c-4.218 0-7.87-1.08-12.024-0.664v49.996c0 63.684-49.87 116.058-112.208 122.318v0.818h36.128c67.904 0 123.87-55.236 123.87-123.136V94.498h-35.768v-0.002z" fill="#A3D165" p-id="1800"></path><path d="M502.819 266.774h9.18v-24.96c0-82.078-66.536-148.616-148.616-148.616h-9.18v24.96c0 82.078 66.54 148.616 148.616 148.616z" fill="#8CC63F" p-id="1801"></path><path d="M389.051 94.496c4.218 0 13.614-1.08 13.614-0.664v49.996c0 63.684 47.792 116.058 108.052 122.318v0.818h-33.564c-67.904 0-122.278-55.236-122.278-123.136V94.498h34.178v-0.002z" fill="#39B54A" p-id="1802"></path><path d="M597.993 1008.416h-171.986c-74.516 0-134.922-60.406-134.922-134.922V401.696c0-74.516 60.406-134.922 134.922-134.922h171.986c74.516 0 134.922 60.406 134.922 134.922v471.798c0 74.516-60.406 134.922-134.922 134.922z" fill="#FBB03B" p-id="1803"></path><path d="M369.421 867.824c0 77.772 63.608 140.95 141.38 140.95h-78.898c-77.772 0-141.444-63.406-141.444-141.178V407.59c0-77.772 63.672-140.63 141.444-140.63H510.801c-77.772 0-141.38 62.952-141.38 140.724v460.14z" fill="#BC842C" p-id="1804"></path><path d="M637.471 867.778c0 77.772-62.28 140.996-140.052 140.996h94.678c77.772 0 140.958-63.406 140.958-141.178V407.59c0-77.772-63.186-140.63-140.958-140.63h-94.678c77.772 0 140.052 63.042 140.052 140.814v460.004z" fill="#FDD089" p-id="1805"></path><path d="M621.357 252.746c38.76-28.2 64.024-73.878 64.024-125.37V77.614h-33.982a154.034 154.034 0 0 0-79.352 21.92L511.757 0l-60.166 99.326A154.008 154.008 0 0 0 372.601 77.614h-33.982v49.762c0 51.492 25.266 97.172 64.024 125.37-71.798 10.39-127.144 72.314-127.144 146.942V875.5c0 81.882 66.618 148.498 148.5 148.498H600.001c81.882 0 148.498-66.616 148.498-148.498V399.69c0-74.63-55.344-136.554-127.142-146.944z m-149.984 645.962l64.748-64.748 72.638 72.638-64.748 64.748-72.638-72.638z m-130.87-433.94l-33.834 33.834v-67.67l33.834 33.836zM600.001 282.358c27.046 0 51.964 9.224 71.832 24.658l-48.924 48.924-64.748-64.748 8.836-8.836H600.001z m0.864 95.624l-64.748 64.748-64.748-64.748 64.748-64.748 64.748 64.748z m22.042 325.11l-64.748-64.748 64.748-64.748 64.748 64.748-64.748 64.748z m86.788-42.706l7.634 7.634v129.496l-72.382-72.382 64.748-64.748z m-195.616-22.042l-64.748 64.748-64.748-64.748 64.748-64.748 64.748 64.748z m-42.708-86.788l64.748-64.748 64.748 64.748-64.748 64.748-64.748-64.748z m64.75 108.828l64.748 64.748-64.748 64.748-64.748-64.748 64.748-64.748z m108.826-108.828l64.748-64.748 7.634 7.634v114.226l-7.634 7.634-64.748-64.746z m-22.04-22.038l-64.748-64.748 64.748-64.748 64.748 64.748-64.748 64.748z m-108.828-64.75l-64.748 64.748-64.748-64.748 64.748-64.748 64.748 64.748z m-86.788 86.788l-64.748 64.748-55.876-55.874v-17.746l55.876-55.876 64.748 64.748z m-86.788 86.788l-33.834 33.834v-67.67l33.834 33.836z m-33.834 95.66v-17.746l55.876-55.874 64.748 64.748-64.748 64.748-55.876-55.876z m33.834 77.916l-33.834 33.834v-67.67l33.834 33.836z m108.828-64.748l64.748 64.748-64.748 64.748-64.748-64.748 64.748-64.748z m108.828 64.748l64.748-64.748 72.638 72.638-64.748 64.748-72.638-72.638z m159.172-376.826l-7.634 7.634-64.748-64.748 48.782-48.782c14.808 19.638 23.6 44.054 23.6 70.488v35.408zM654.213 108.782v18.594c0 65.696-51.436 119.58-116.148 123.552l46.408-34.804-18.702-24.934-37.456 28.094c6.666-62.032 59.316-110.5 123.088-110.5-0.002-0.002 2.81-0.002 2.81-0.002z m-174.664 4.548l32.208-53.17 32.208 53.17v7.724A155.692 155.692 0 0 0 512.001 164.924c-8.126-16.674-19.178-31.654-32.45-44.334v-7.26z m-109.762 14.046v-18.594h2.814c63.772 0 116.424 48.468 123.088 110.5l-37.456-28.094-18.702 24.934 46.408 34.804c-64.712-3.97-116.152-57.854-116.152-123.55z m135.458 154.982l8.836 8.836-64.748 64.748-66.218-66.218a116.75 116.75 0 0 1 40.888-7.362h81.244v-0.004z m-150.722 22.856l72.766 72.768-64.748 64.748-55.24-55.24c3.5-33.684 21.308-63.17 47.222-82.276z m-47.05 583.818l55.07-55.07 64.748 64.748L355.401 970.6c-26.038-18.834-44.062-48.068-47.928-81.568z m76.734 96.84l65.124-65.124 72.082 72.082h-97.414a116.674 116.674 0 0 1-39.792-6.958z m182.396 6.96l64.192-64.192 40.196 40.196c-19.726 15.042-44.328 23.998-70.992 23.998h-33.396z m126.466-46.002l-40.23-40.232 64.492-64.492v33.396c0 26.818-9.064 51.544-24.262 71.328z" fill="" p-id="1806"></path></svg>