<?xml version="1.0" standalone="no"?><!DOCTYPE svg PUBLIC "-//W3C//DTD SVG 1.1//EN" "http://www.w3.org/Graphics/SVG/1.1/DTD/svg11.dtd"><svg t="1586599295405" class="icon" viewBox="0 0 1024 1024" version="1.1" xmlns="http://www.w3.org/2000/svg" p-id="3209" xmlns:xlink="http://www.w3.org/1999/xlink" width="200" height="200"><defs><style type="text/css"></style></defs><path d="M512 153.6c197.9392 0 358.4 160.4608 358.4 358.4s-160.4608 358.4-358.4 358.4S153.6 709.9392 153.6 512 314.0608 153.6 512 153.6z m0 102.4c-141.3888 0-256 114.6112-256 256s114.6112 256 256 256 256-114.6112 256-256-114.6112-256-256-256z m-115.2 307.2a38.4 38.4 0 1 1 0 76.8 38.4 38.4 0 0 1 0-76.8zM665.6 409.6a102.4 102.4 0 0 1 102.4 102.4l-0.128 5.12A102.4 102.4 0 1 1 665.6 409.6z" fill="#05D2D0" p-id="3210"></path><path d="M563.2 25.6a25.6 25.6 0 0 1 2.9952 51.0208L563.2 76.8h-25.6v26.368a407.9104 407.9104 0 0 1 245.376 101.6832l38.4-38.4768-20.2752-20.2752a25.6 25.6 0 0 1 33.792-38.3232l2.4064 2.1248 72.4224 72.3968a25.6 25.6 0 0 1-33.792 38.3488l-2.432-2.1248-15.8976-15.9232-38.4512 38.4a407.9104 407.9104 0 0 1 101.6576 245.4272L947.2 486.4v-25.6a25.6 25.6 0 0 1 51.0208-2.9952L998.4 460.8v102.4a25.6 25.6 0 0 1-51.0208 2.9952L947.2 563.2v-25.6h-26.368a407.9104 407.9104 0 0 1-101.6832 245.376L855.3984 819.2l18.0992-18.0736a25.6 25.6 0 0 1 38.3488 33.792l-2.1248 2.4064-72.4224 72.4224a25.6 25.6 0 0 1-38.3232-33.792l2.1248-2.432 18.0736-18.0992-36.1984-36.2496A407.9104 407.9104 0 0 1 537.6 920.832V947.2h25.6a25.6 25.6 0 0 1 2.9952 51.0208L563.2 998.4h-102.4a25.6 25.6 0 0 1-2.9952-51.0208L460.8 947.2h25.6v-26.368a407.9104 407.9104 0 0 1-245.376-101.6832L202.5984 857.6l15.9232 15.8976 2.1248 2.432a25.6 25.6 0 0 1-35.9168 35.9168l-2.432-2.1248-72.3968-72.4224-2.1248-2.4064a25.6 25.6 0 0 1 35.9168-35.9168l2.4064 2.1248 20.2752 20.2752 38.4768-38.4A408.064 408.064 0 0 1 102.4 512H76.8v25.6a25.6 25.6 0 0 1-51.0208 2.9952L25.6 537.6v-102.4a25.6 25.6 0 0 1 51.0208-2.9952L76.8 435.2v25.6h28.7744a407.9872 407.9872 0 0 1 99.2768-219.776L164.1984 200.4224l-18.0992 18.0992a25.6 25.6 0 0 1-38.3232-33.792l2.1248-2.432L182.272 109.9008a25.6 25.6 0 0 1 38.3488 33.792l-2.1248 2.4064-18.0992 18.0992 40.6016 40.6528A407.9104 407.9104 0 0 1 486.4 103.168L486.4 76.8h-25.6a25.6 25.6 0 0 1-2.9952-51.0208L460.8 25.6h102.4z m-51.2 179.2c169.6512 0 307.2 137.5488 307.2 307.2s-137.5488 307.2-307.2 307.2S204.8 681.6512 204.8 512 342.3488 204.8 512 204.8z m0 51.2c-24.0128 0-47.2576 3.328-69.2992 9.472A115.2512 115.2512 0 0 1 396.8 486.4a115.2512 115.2512 0 0 1-112.6912-91.136A254.72 254.72 0 0 0 256 512c0 141.3888 114.6112 256 256 256a255.744 255.744 0 0 0 213.3504-114.432 153.6 153.6 0 1 1 0-283.1104A255.744 255.744 0 0 0 512 256z m-115.2 256a89.6 89.6 0 1 1 0 179.2 89.6 89.6 0 0 1 0-179.2z m0 51.2a38.4 38.4 0 1 0 0 76.8 38.4 38.4 0 0 0 0-76.8zM665.6 409.6a102.4 102.4 0 1 0 0 204.8 102.4 102.4 0 0 0 0-204.8z m-268.8-102.4a64 64 0 1 0 0 128 64 64 0 0 0 0-128z m379.1872 447.1808l1.408-1.536 4.1472-4.6592-2.5856 2.8672 3.1232-3.4304 5.6832-6.6816a356.7872 356.7872 0 0 0 81.8432-204.8512l-0.1024 1.4848a362.368 362.368 0 0 0 0-51.1232l-0.512-6.1952a357.12 357.12 0 0 0-110.976-228.864l-1.3568-1.28-1.2544-1.1776 1.2288 1.152-2.2016-2.0224-1.6384-1.4848 1.4848 1.3312-1.408-1.3056-2.5856-2.304-2.0224-1.792a356.9152 356.9152 0 0 0-228.2496-88.832L512 153.6c-4.4288 0-8.832 0.0768-13.2352 0.256l-1.6384 0.0512h-0.6912l-0.5632 0.0512-2.8928 0.128a357.0944 357.0944 0 0 0-241.5872 111.872l-3.328 3.584-1.4336 1.5872-1.8432 2.048-2.6112 2.9184 2.048-2.304-2.048 2.304a357.0432 357.0432 0 0 0-84.3776 180.8384l-0.5632 4.1216-1.536 11.9552-1.1008 12.0576-0.1024 1.3824-0.3072 4.9152-0.128 2.2784-0.1792 4.0448 0.0768-1.792-0.1792 5.0176 0.1024-3.2256a357.1712 357.1712 0 0 0 112.1024 274.944l3.5584 3.2768 1.6384 1.4848-1.4848-1.3312 1.4336 1.3312 2.56 2.2784 2.048 1.8176a356.9152 356.9152 0 0 0 209.7408 87.936l10.0352 0.5888 2.9952 0.128-1.5104-0.0768 6.7328 0.256a365.3376 365.3376 0 0 0 24.6784-0.2816l4.224-0.256 9.088-0.5888a357.12 357.12 0 0 0 230.912-111.1808l3.2768-3.584 1.4336-1.5872-1.3568 1.536z" fill="#0A515D" p-id="3211"></path></svg>