<?xml version="1.0" standalone="no"?><!DOCTYPE svg PUBLIC "-//W3C//DTD SVG 1.1//EN" "http://www.w3.org/Graphics/SVG/1.1/DTD/svg11.dtd"><svg t="1586598670335" class="icon" viewBox="0 0 1024 1024" version="1.1" xmlns="http://www.w3.org/2000/svg" p-id="2325" xmlns:xlink="http://www.w3.org/1999/xlink" width="200" height="200"><defs><style type="text/css"></style></defs><path d="M143.875719 47.667907c35.357931 0 64.021875 28.663944 64.021875 64.021875v64.021875c-35.357931 0-64.021875-28.663944-64.021875-64.021875V47.667907z" fill="#650B0F" p-id="2326"></path><path d="M111.863782 383.78125c-53.037896 0-96.031812-42.995916-96.031813-96.031812V143.699719c0-70.715862 57.327888-128.04175 128.04375-128.04175v80.025844c0 35.357931 28.663944 64.021875 64.021875 64.021875v128.04175c0 53.037896-42.995916 96.033812-96.033812 96.033812z" fill="#B20209" p-id="2327"></path><path d="M95.091814 287.749438V143.699719c0-40.415921 20.875959-76.399851 50.103902-99.867805V15.657969C72.127859 15.657969 15.759969 72.983857 15.759969 143.699719v144.047719c0 53.037896 43.029916 96.031812 96.067813 96.031812 14.297972 0 27.453946-3.209994 39.645922-8.815982-33.031935-15.17997-56.38189-48.475905-56.38189-87.21383z" fill="#650B0F" p-id="2328"></path><path d="M880.124281 47.667907c-35.357931 0-64.021875 28.663944-64.021875 64.021875v64.021875c35.357931 0 64.021875-28.663944 64.021875-64.021875V47.667907z" fill="#B20209" p-id="2329"></path><path d="M912.136218 383.78125c53.037896 0 96.031812-42.995916 96.031813-96.031812V143.699719c0-70.715862-57.327888-128.04175-128.04175-128.04175v80.025844c0 35.357931-28.663944 64.021875-64.021875 64.021875v128.04175c-0.002 53.037896 42.991916 96.033812 96.031812 96.033812z" fill="#650B0F" p-id="2330"></path><path d="M928.068187 287.749438V143.699719c0-40.415921-14.613971-76.399851-48.015906-99.867805V15.657969c64.717874 0 127.347751 57.327888 127.347751 128.04175v144.047719c0 53.037896-42.611917 96.031812-95.647813 96.031812-14.297972 0-27.663946-3.209994-39.857922-8.815982 33.035935-15.17997 56.17389-48.475905 56.17389-87.21383z" fill="#B20209" p-id="2331"></path><path d="M656.048719 287.741438m-32.009938 0a32.009937 32.009937 0 1 0 64.019875 0 32.009937 32.009937 0 1 0-64.019875 0Z" fill="#4D4D4D" p-id="2332"></path><path d="M367.951281 287.741438m-32.009937 0a32.009937 32.009937 0 1 0 64.019875 0 32.009937 32.009937 0 1 0-64.019875 0Z" fill="#4D4D4D" p-id="2333"></path><path d="M844.56235 671.878688c0 185.631637-149.439708 336.113344-335.069345 336.113343S174.423659 857.508325 174.423659 671.878688v-192.065625l335.069346-64.021875 335.069345 64.021875v192.065625z" fill="#B20209" p-id="2334"></path><path d="M784.020469 467.619087v172.249663c0 185.631637-150.447706 336.113344-336.077344 336.113344-41.447919 0-80.951842-7.859985-117.61177-21.581958 52.411898 33.771934 113.941777 53.591895 180.929646 53.591895 185.631637 0 335.391345-150.483706 335.391345-336.113343v-192.065625l-62.631877-12.193976z" fill="#C2353A" p-id="2335"></path><path d="M239.909531 863.942313l-64.023875-112.035782V479.813063l64.023875-16.003969z" fill="#650B0F" p-id="2336"></path><path d="M318.473378 591.852844h33.401935v31.313939h-33.401935zM255.8435 704.586624h177.451654v31.313939h-177.451654zM558.554909 591.852844h64.717874v31.313939h-64.717874zM623.272783 560.536905h98.119808v31.313939h-98.119808zM558.554909 495.819032h33.401935v31.313938h-33.401935z" fill="" p-id="2337"></path><path d="M560.640905 927.616188v-31.315939c25.051951 0 50.391902-4.603991 74.123855-13.679973l11.341978 29.247943a238.973533 238.973533 0 0 1-85.465833 15.747969zM679.904672 895.532251l-15.681969-27.105947c64.281874-37.187927 104.211796-106.365792 104.211796-180.539648h31.313939c0 85.309833-45.92191 164.877678-119.843766 207.645595z" fill="#FFFFFF" p-id="2338"></path><path d="M401.981215 815.232408h125.259755v31.313939h-125.259755zM558.554909 815.232408h33.401935v31.313939h-33.401935zM335.175345 879.950281h98.119809v31.313939h-98.119809z" fill="" p-id="2339"></path><path d="M927.794188 479.813063v-81.495841c54.195894-7.637985 96.031812-54.299894 96.031812-110.569784V143.699719c0-79.237845-64.463874-143.699719-143.701719-143.699719h-15.657969v33.563934c-36.461929 7.295986-64.021875 39.549923-64.021875 78.125848v176.059656c0 56.26989 41.835918 102.929799 96.031812 110.569784v81.495841c0 21.343958-13.903973 39.491923-33.127935 45.89191v-58.839885l-251.739509-48.097906c31.931938-16.719967 54.833893-48.421905 59.277885-85.725832 19.037963-6.253988 32.825936-24.187953 32.825936-45.291912 0-26.283949-21.383958-47.667907-47.667907-47.667907s-47.667907 21.383958-47.667907 47.667907c0 20.42596 12.915975 37.885926 31.007939 44.659913-6.085988 38.329925-39.355923 67.727868-79.369845 67.727867h-96.031812c-40.015922 0-73.285857-29.397943-79.369845-67.727867 18.091965-6.771987 31.007939-24.231953 31.007939-44.659913 0-26.283949-21.383958-47.667907-47.667907-47.667907s-47.667907 21.383958-47.667907 47.667907c0 21.103959 13.789973 39.037924 32.827936 45.291912 4.457991 37.433927 27.501946 69.225865 59.609884 85.899832l-250.82551 47.919906v59.243884c-19.865961-6.013988-34.373933-24.487952-34.373933-46.293909v-81.495841c54.195894-7.637985 96.031812-54.299894 96.031812-110.569784v-176.059656c0-38.575925-27.559946-70.829862-64.021875-78.125848V0h-15.657969C64.639874 0 0.174 64.461874 0.174 143.699719v144.047719c0 56.26989 41.835918 102.929799 96.031812 110.569784v81.495841c0 39.159924 28.403945 71.78986 65.687872 78.425847v20.589959L15.757969 611.302806v76.58185h31.313939v-51.459899l114.821776-25.51595v60.971881c0 6.427987 0.186 12.825975 0.523999 19.193962L15.759969 723.312587v77.305849h31.313939v-52.129898l118.401769-26.023949a350.729315 350.729315 0 0 0 16.941967 68.675866L15.759969 835.934367v77.415849h31.313939v-53.407896l147.315712-39.593922a349.245318 349.245318 0 0 0 39.599923 65.461872L15.759969 948.166148V1023.998h31.313939v-52.211898l209.103592-59.739883a358.5253 358.5253 0 0 0 8.201984 8.547983c66.169871 66.45587 154.331699 103.055799 248.241515 103.055799s182.071644-36.597929 248.241515-103.055799a355.571306 355.571306 0 0 0 7.765985-8.077984l207.453595 59.269884V1023.998H1007.398032v-75.831852l-216.517577-61.861879a348.999318 348.999318 0 0 0 39.743923-65.453872l145.457716 39.095923v53.403896H1007.398032v-77.415849l-164.757678-44.283913a350.653315 350.653315 0 0 0 17.067967-68.739866l116.373773 25.57995v52.127898H1007.398032v-77.305849l-144.599717-31.785938c0.353999-6.517987 0.551999-13.065974 0.551999-19.647961v-60.507882l112.73378 25.051951v51.459899h31.315938V611.298806l-144.047718-32.009937v-21.277959c36.665928-7.129986 64.441874-39.473923 64.441874-78.197847zM831.760375 111.689782c0-21.187959 13.703973-39.227923 32.707937-45.749911v29.741942c0 21.187959-13.703973 39.227923-32.707937 45.749911V111.689782z m6.075989 206.677596h90.233823v-31.313939h-96.307812V173.819661c36.463929-7.293986 64.021875-39.557923 64.021875-78.135848V32.399937c54.585893 7.637985 96.727811 54.639893 96.727811 111.299782v143.35372h-31.039939v31.313939h24.963951c-12.065976 29.169943-40.81992 49.755903-74.299855 49.755903s-62.233878-20.58396-74.299854-49.755903z m-181.787645-46.971908c9.015982 0 16.351968 7.335986 16.351968 16.351968s-7.335986 16.353968-16.351968 16.353968-16.351968-7.337986-16.351968-16.353968c0-9.015982 7.335986-16.351968 16.351968-16.351968z m-288.097438 32.707936c-9.015982 0-16.351968-7.337986-16.351968-16.353968 0-9.015982 7.335986-16.351968 16.351968-16.351968s16.351968 7.335986 16.351968 16.351968-7.335986 16.353968-16.351968 16.353968zM192.239625 111.689782v29.741942c-19.003963-6.523987-32.707936-24.559952-32.707937-45.749911v-29.739942c19.005963 6.519987 32.707936 24.557952 32.707937 45.747911zM111.863782 368.123281c-33.479935 0-62.233878-20.58396-74.299855-49.755903h26.209948v-31.313939H31.489938V143.699719c0-56.659889 42.139918-103.657798 96.727812-111.299782v63.283876c0 38.577925 27.559946 70.839862 64.021875 78.135848v113.235778H95.091814v31.313939h91.073822c-12.067976 29.169943-40.81992 49.753903-74.301854 49.753903zM832.036375 671.878688c0 85.673833-33.155935 166.157675-93.361818 226.621557-56.805889 57.049889-131.417743 89.921824-211.435587 93.495818v-47.329908h-31.315939v47.233908c-73.057857-3.731993-141.493724-31.925938-195.863617-80.635843h3.799993v-31.313939h-31.313939v3.509993c-22.445956-25.58595-40.435921-54.213894-53.569896-84.927834h36.867928v-31.315938h-48.357905c-9.387982-30.463941-14.271972-62.517878-14.271972-95.337814v-96.727811h110.645784v-31.315939H193.211623v-51.0719l302.711408-57.837887v77.595848h31.315939v-77.995848l304.799405 58.237887v179.11565z" fill="" p-id="2340"></path></svg>